<svg width="350" height="350" viewBox="0 0 350 350" fill="none" xmlns="http://www.w3.org/2000/svg">
<path d="M290.143 194.095C290.143 224.747 277.967 254.143 256.293 275.817C234.619 297.49 205.223 309.667 174.571 309.667C143.92 309.667 114.524 297.49 92.8501 275.817C71.1762 254.143 59 224.747 59 194.095V65.6825L174.571 40L290.143 65.6825V194.095Z" fill="#C7F1FF" stroke="#19303D" stroke-width="27"/>
<path d="M238.26 203.115C238.262 201.564 237.882 200.035 237.154 198.658C236.425 197.281 235.37 196.097 234.076 195.207C216.356 183.939 195.508 178.357 174.416 179.235C153.324 178.357 132.476 183.939 114.756 195.207C113.463 196.097 112.407 197.281 111.678 198.658C110.95 200.035 110.57 201.564 110.572 203.115V227.459H238.26V203.115Z" fill="#19303D" stroke="#19303D" stroke-width="23"/>
<path d="M171.539 152.687C190.599 152.687 206.05 137.237 206.05 118.177C206.05 99.1177 190.599 83.667 171.539 83.667C152.48 83.667 137.029 99.1177 137.029 118.177C137.029 137.237 152.48 152.687 171.539 152.687Z" fill="#19303D" stroke="#19303D" stroke-width="23"/>
</svg>
